REM DIRINDEX 1\2,1\3
REM DIRNAME cjc143,folder01,folder02
TITLE ""
FILE "2000 phrasesTrack40.mp3" MP3
  TRACK 01 AUDIO
    TITLE "2:cjc143_1541"
    INDEX 01 00:00:00
  TRACK 02 AUDIO
    TITLE "0:"
    INDEX 01 00:00:62
  TRACK 03 AUDIO
    TITLE "2:cjc143_1542"
    INDEX 01 00:01:26
  TRACK 04 AUDIO
    TITLE "0:"
    INDEX 01 00:02:63
  TRACK 05 AUDIO
    TITLE "2:cjc143_1543"
    INDEX 01 00:03:00
  TRACK 06 AUDIO
    TITLE "0:"
    INDEX 01 00:04:35
  TRACK 07 AUDIO
    TITLE "2:cjc143_1544"
    INDEX 01 00:04:46
  TRACK 08 AUDIO
    TITLE "0:"
    INDEX 01 00:05:71
  TRACK 09 AUDIO
    TITLE "2:cjc143_1545"
    INDEX 01 00:06:08
  TRACK 10 AUDIO
    TITLE "0:"
    INDEX 01 00:07:23
  TRACK 11 AUDIO
    TITLE "2:cjc143_1546"
    INDEX 01 00:07:27
  TRACK 12 AUDIO
    TITLE "0:"
    INDEX 01 00:08:64
  TRACK 13 AUDIO
    TITLE "2:cjc143_1547"
    INDEX 01 00:09:12
  TRACK 14 AUDIO
    TITLE "0:"
    INDEX 01 00:10:37
  TRACK 15 AUDIO
    TITLE "2:cjc143_1548"
    INDEX 01 00:10:43
  TRACK 16 AUDIO
    TITLE "0:"
    INDEX 01 00:12:01
  TRACK 17 AUDIO
    TITLE "2:cjc143_1549"
    INDEX 01 00:12:09
  TRACK 18 AUDIO
    TITLE "0:"
    INDEX 01 00:13:28
  TRACK 19 AUDIO
    TITLE "2:cjc143_1550"
    INDEX 01 00:13:59
  TRACK 20 AUDIO
    TITLE "0:"
    INDEX 01 00:15:11
  TRACK 21 AUDIO
    TITLE "2:cjc143_1551"
    INDEX 01 00:15:17
  TRACK 22 AUDIO
    TITLE "0:"
    INDEX 01 00:16:51
  TRACK 23 AUDIO
    TITLE "2:cjc143_1552"
    INDEX 01 00:16:59
  TRACK 24 AUDIO
    TITLE "0:"
    INDEX 01 00:18:25
  TRACK 25 AUDIO
    TITLE "2:cjc143_1553"
    INDEX 01 00:18:31
  TRACK 26 AUDIO
    TITLE "0:"
    INDEX 01 00:20:00
  TRACK 27 AUDIO
    TITLE "2:cjc143_1554"
    INDEX 01 00:20:06
  TRACK 28 AUDIO
    TITLE "0:"
    INDEX 01 00:21:41
  TRACK 29 AUDIO
    TITLE "2:cjc143_1555"
    INDEX 01 00:21:57
  TRACK 30 AUDIO
    TITLE "0:"
    INDEX 01 00:23:14
  TRACK 31 AUDIO
    TITLE "2:cjc143_1556"
    INDEX 01 00:23:24
  TRACK 32 AUDIO
    TITLE "0:"
    INDEX 01 00:24:69
  TRACK 33 AUDIO
    TITLE "2:cjc143_1557"
    INDEX 01 00:25:17
  TRACK 34 AUDIO
    TITLE "0:"
    INDEX 01 00:26:58
  TRACK 35 AUDIO
    TITLE "2:cjc143_1558"
    INDEX 01 00:26:71
  TRACK 36 AUDIO
    TITLE "0:"
    INDEX 01 00:28:33
  TRACK 37 AUDIO
    TITLE "2:cjc143_1559"
    INDEX 01 00:28:41
  TRACK 38 AUDIO
    TITLE "0:"
    INDEX 01 00:30:03
  TRACK 39 AUDIO
    TITLE "2:cjc143_1560"
    INDEX 01 00:30:16
  TRACK 40 AUDIO
    TITLE "0:"
    INDEX 01 00:31:55
  TRACK 41 AUDIO
    TITLE "2:cjc143_1561"
    INDEX 01 00:32:01
  TRACK 42 AUDIO
    TITLE "0:"
    INDEX 01 00:34:18
  TRACK 43 AUDIO
    TITLE "2:cjc143_1562"
    INDEX 01 00:34:32
  TRACK 44 AUDIO
    TITLE "0:"
    INDEX 01 00:36:03
  TRACK 45 AUDIO
    TITLE "2:cjc143_1563"
    INDEX 01 00:36:11
  TRACK 46 AUDIO
    TITLE "0:"
    INDEX 01 00:38:31
  TRACK 47 AUDIO
    TITLE "2:cjc143_1564"
    INDEX 01 00:38:43
  TRACK 48 AUDIO
    TITLE "0:"
    INDEX 01 00:41:06
  TRACK 49 AUDIO
    TITLE "2:cjc143_1565"
    INDEX 01 00:41:24
  TRACK 50 AUDIO
    TITLE "0:"
    INDEX 01 00:42:63
  TRACK 51 AUDIO
    TITLE "2:cjc143_1566"
    INDEX 01 00:43:03
  TRACK 52 AUDIO
    TITLE "0:"
    INDEX 01 00:44:26
  TRACK 53 AUDIO
    TITLE "2:cjc143_1567"
    INDEX 01 00:44:32
  TRACK 54 AUDIO
    TITLE "0:"
    INDEX 01 00:45:57
  TRACK 55 AUDIO
    TITLE "2:cjc143_1568"
    INDEX 01 00:45:71
  TRACK 56 AUDIO
    TITLE "0:"
    INDEX 01 00:47:52
  TRACK 57 AUDIO
    TITLE "2:cjc143_1569"
    INDEX 01 00:47:64
  TRACK 58 AUDIO
    TITLE "0:"
    INDEX 01 00:49:10
  TRACK 59 AUDIO
    TITLE "2:cjc143_1570"
    INDEX 01 00:49:31
  TRACK 60 AUDIO
    TITLE "0:"
    INDEX 01 00:51:07
  TRACK 61 AUDIO
    TITLE "2:cjc143_1571"
    INDEX 01 00:51:24
  TRACK 62 AUDIO
    TITLE "0:"
    INDEX 01 00:52:49
  TRACK 63 AUDIO
    TITLE "2:cjc143_1572"
    INDEX 01 00:53:00
  TRACK 64 AUDIO
    TITLE "0:"
    INDEX 01 00:54:46
  TRACK 65 AUDIO
    TITLE "2:cjc143_1573"
    INDEX 01 00:54:58
  TRACK 66 AUDIO
    TITLE "0:"
    INDEX 01 00:56:41
  TRACK 67 AUDIO
    TITLE "2:cjc143_1574"
    INDEX 01 00:56:49
  TRACK 68 AUDIO
    TITLE "0:"
    INDEX 01 00:58:40
  TRACK 69 AUDIO
    TITLE "2:cjc143_1575"
    INDEX 01 00:58:56
  TRACK 70 AUDIO
    TITLE "0:"
    INDEX 01 01:00:13
  TRACK 71 AUDIO
    TITLE "2:cjc143_1576"
    INDEX 01 01:00:29
  TRACK 72 AUDIO
    TITLE "0:"
    INDEX 01 01:01:74
  TRACK 73 AUDIO
    TITLE "2:cjc143_1577"
    INDEX 01 01:02:06
  TRACK 74 AUDIO
    TITLE "0:"
    INDEX 01 01:03:31
  TRACK 75 AUDIO
    TITLE "2:cjc143_1578"
    INDEX 01 01:03:47
  TRACK 76 AUDIO
    TITLE "0:"
    INDEX 01 01:05:21
  TRACK 77 AUDIO
    TITLE "2:cjc143_1579"
    INDEX 01 01:05:44
  TRACK 78 AUDIO
    TITLE "0:"
    INDEX 01 01:07:08
  TRACK 79 AUDIO
    TITLE "2:cjc143_1580"
    INDEX 01 01:07:39
  TRACK 80 AUDIO
    TITLE "0:"
    INDEX 01 01:09:03
  TRACK 81 AUDIO
    TITLE "2:cjc143_1581"
    INDEX 01 01:09:10
  TRACK 82 AUDIO
    TITLE "0:"
    INDEX 01 01:10:51
  TRACK 83 AUDIO
    TITLE "2:cjc143_1582"
    INDEX 01 01:10:57
  TRACK 84 AUDIO
    TITLE "0:"
    INDEX 01 01:12:36
  TRACK 85 AUDIO
    TITLE "2:cjc143_1583"
    INDEX 01 01:12:44
  TRACK 86 AUDIO
    TITLE "0:"
    INDEX 01 01:13:61
  TRACK 87 AUDIO
    TITLE "2:cjc143_1584"
    INDEX 01 01:14:00
  TRACK 88 AUDIO
    TITLE "0:"
    INDEX 01 01:15:52
  TRACK 89 AUDIO
    TITLE "2:cjc143_1585"
    INDEX 01 01:15:60
  TRACK 90 AUDIO
    TITLE "0:"
    INDEX 01 01:17:06
  TRACK 91 AUDIO
    TITLE "2:cjc143_1586"
    INDEX 01 01:17:37
  TRACK 92 AUDIO
    TITLE "0:"
    INDEX 01 01:18:58
  TRACK 93 AUDIO
    TITLE "2:cjc143_1587"
    INDEX 01 01:19:21
  TRACK 94 AUDIO
    TITLE "0:"
    INDEX 01 01:20:59
  TRACK 95 AUDIO
    TITLE "2:cjc143_1588"
    INDEX 01 01:21:02
  TRACK 96 AUDIO
    TITLE "0:"
    INDEX 01 01:22:70
  TRACK 97 AUDIO
    TITLE "2:cjc143_1589"
    INDEX 01 01:23:16
  TRACK 98 AUDIO
    TITLE "0:"
    INDEX 01 01:24:53
  TRACK 99 AUDIO
    TITLE "2:cjc143_1590"
    INDEX 01 01:24:61
  TRACK 100 AUDIO
    TITLE "0:"
    INDEX 01 01:26:07
  TRACK 101 AUDIO
    TITLE "2:cjc143_1591"
    INDEX 01 01:26:17
  TRACK 102 AUDIO
    TITLE "0:"
    INDEX 01 01:27:44
  TRACK 103 AUDIO
    TITLE "2:cjc143_1592"
    INDEX 01 01:27:55
  TRACK 104 AUDIO
    TITLE "0:"
    INDEX 01 01:29:19
  TRACK 105 AUDIO
    TITLE "2:cjc143_1593"
    INDEX 01 01:29:25
  TRACK 106 AUDIO
    TITLE "0:"
    INDEX 01 01:30:56
  TRACK 107 AUDIO
    TITLE "2:cjc143_1594"
    INDEX 01 01:30:67
  TRACK 108 AUDIO
    TITLE "0:"
    INDEX 01 01:32:29
  TRACK 109 AUDIO
    TITLE "2:cjc143_1595"
    INDEX 01 01:32:53
  TRACK 110 AUDIO
    TITLE "0:"
    INDEX 01 01:34:14
  TRACK 111 AUDIO
    TITLE "2:cjc143_1596"
    INDEX 01 01:34:20
  TRACK 112 AUDIO
    TITLE "0:"
    INDEX 01 01:35:45
  TRACK 113 AUDIO
    TITLE "2:cjc143_1597"
    INDEX 01 01:35:53
  TRACK 114 AUDIO
    TITLE "0:"
    INDEX 01 01:37:28
  TRACK 115 AUDIO
    TITLE "2:cjc143_1598"
    INDEX 01 01:37:34
  TRACK 116 AUDIO
    TITLE "0:"
    INDEX 01 01:39:19
  TRACK 117 AUDIO
    TITLE "2:cjc143_1599"
    INDEX 01 01:39:23
  TRACK 118 AUDIO
    TITLE "0:"
    INDEX 01 01:41:10
  TRACK 119 AUDIO
    TITLE "2:cjc143_1600"
    INDEX 01 01:41:20
  TRACK 120 AUDIO
    TITLE "0:"
    INDEX 01 01:43:19
  TRACK 121 AUDIO
    TITLE "2:cjc143_1601"
    INDEX 01 01:43:33
  TRACK 122 AUDIO
    TITLE "0:"
    INDEX 01 01:45:26
  TRACK 123 AUDIO
    TITLE "2:cjc143_1602"
    INDEX 01 01:45:55
  TRACK 124 AUDIO
    TITLE "0:"
    INDEX 01 01:47:17
  TRACK 125 AUDIO
    TITLE "2:cjc143_1603"
    INDEX 01 01:47:27
  TRACK 126 AUDIO
    TITLE "0:"
    INDEX 01 01:49:12
  TRACK 127 AUDIO
    TITLE "2:cjc143_1604"
    INDEX 01 01:49:41
  TRACK 128 AUDIO
    TITLE "0:"
    INDEX 01 01:51:09
  TRACK 129 AUDIO
    TITLE "2:cjc143_1605"
    INDEX 01 01:51:17
  TRACK 130 AUDIO
    TITLE "0:"
    INDEX 01 01:52:71
  TRACK 131 AUDIO
    TITLE "2:cjc143_1606"
    INDEX 01 01:53:04
  TRACK 132 AUDIO
    TITLE "0:"
    INDEX 01 01:54:64
  TRACK 133 AUDIO
    TITLE "2:cjc143_1607"
    INDEX 01 01:54:72
  TRACK 134 AUDIO
    TITLE "0:"
    INDEX 01 01:56:10
  TRACK 135 AUDIO
    TITLE "2:cjc143_1608"
    INDEX 01 01:56:18
  TRACK 136 AUDIO
    TITLE "0:"
    INDEX 01 01:57:58
  TRACK 137 AUDIO
    TITLE "2:cjc143_1609"
    INDEX 01 01:57:62
  TRACK 138 AUDIO
    TITLE "0:"
    INDEX 01 01:59:28
  TRACK 139 AUDIO
    TITLE "2:cjc143_1610"
    INDEX 01 01:59:34
  TRACK 140 AUDIO
    TITLE "0:"
    INDEX 01 02:01:11
  TRACK 141 AUDIO
    TITLE "2:cjc143_1611"
    INDEX 01 02:01:41
  TRACK 142 AUDIO
    TITLE "0:"
    INDEX 01 02:02:71
  TRACK 143 AUDIO
    TITLE "2:cjc143_1612"
    INDEX 01 02:03:02
  TRACK 144 AUDIO
    TITLE "0:"
    INDEX 01 02:04:41
  TRACK 145 AUDIO
    TITLE "2:cjc143_1613"
    INDEX 01 02:04:49
  TRACK 146 AUDIO
    TITLE "0:"
    INDEX 01 02:05:68
  TRACK 147 AUDIO
    TITLE "2:cjc143_1614"
    INDEX 01 02:05:72
  TRACK 148 AUDIO
    TITLE "0:"
    INDEX 01 02:07:29
  TRACK 149 AUDIO
    TITLE "2:cjc143_1615"
    INDEX 01 02:07:41
  TRACK 150 AUDIO
    TITLE "0:"
    INDEX 01 02:08:74
  TRACK 151 AUDIO
    TITLE "2:cjc143_1616"
    INDEX 01 02:09:09
  TRACK 152 AUDIO
    TITLE "0:"
    INDEX 01 02:10:38
  TRACK 153 AUDIO
    TITLE "2:cjc143_1617"
    INDEX 01 02:10:47
  TRACK 154 AUDIO
    TITLE "0:"
    INDEX 01 02:12:31
  TRACK 155 AUDIO
    TITLE "2:cjc143_1618"
    INDEX 01 02:12:38
  TRACK 156 AUDIO
    TITLE "0:"
    INDEX 01 02:14:45
  TRACK 157 AUDIO
    TITLE "2:cjc143_1619"
    INDEX 01 02:14:65
  TRACK 158 AUDIO
    TITLE "0:"
    INDEX 01 02:16:09
  TRACK 159 AUDIO
    TITLE "2:cjc143_1620"
    INDEX 01 02:16:44
  TRACK 160 AUDIO
    TITLE "0:"
    INDEX 01 02:17:69
  TRACK 161 AUDIO
    TITLE "2:cjc143_1621"
    INDEX 01 02:18:04
  TRACK 162 AUDIO
    TITLE "0:"
    INDEX 01 02:19:25
  TRACK 163 AUDIO
    TITLE "2:cjc143_1622"
    INDEX 01 02:19:50
  TRACK 164 AUDIO
    TITLE "0:"
    INDEX 01 02:20:73
  TRACK 165 AUDIO
    TITLE "2:cjc143_1623"
    INDEX 01 02:21:12
  TRACK 166 AUDIO
    TITLE "0:"
    INDEX 01 02:22:45
  TRACK 167 AUDIO
    TITLE "2:cjc143_1624"
    INDEX 01 02:22:58
  TRACK 168 AUDIO
    TITLE "0:"
    INDEX 01 02:24:04
  TRACK 169 AUDIO
    TITLE "2:cjc143_1625"
    INDEX 01 02:24:18
  TRACK 170 AUDIO
    TITLE "0:"
    INDEX 01 02:25:41
  TRACK 171 AUDIO
    TITLE "2:cjc143_1626"
    INDEX 01 02:25:49
  TRACK 172 AUDIO
    TITLE "0:"
    INDEX 01 02:27:30
  TRACK 173 AUDIO
    TITLE "2:cjc143_1627"
    INDEX 01 02:27:36
  TRACK 174 AUDIO
    TITLE "0:"
    INDEX 01 02:29:17
  TRACK 175 AUDIO
    TITLE "2:cjc143_1628"
    INDEX 01 02:29:21
  TRACK 176 AUDIO
    TITLE "0:"
    INDEX 01 02:30:74
  TRACK 177 AUDIO
    TITLE "2:cjc143_1629"
    INDEX 01 02:31:08
  TRACK 178 AUDIO
    TITLE "0:"
    INDEX 01 02:32:43
  TRACK 179 AUDIO
    TITLE "2:cjc143_1630"
    INDEX 01 02:33:01
  TRACK 180 AUDIO
    TITLE "0:"
    INDEX 01 02:34:40
  TRACK 181 AUDIO
    TITLE "2:cjc143_1631"
    INDEX 01 02:34:56
  TRACK 182 AUDIO
    TITLE "0:"
    INDEX 01 02:36:37
  TRACK 183 AUDIO
    TITLE "2:cjc143_1632"
    INDEX 01 02:36:47
  TRACK 184 AUDIO
    TITLE "0:"
    INDEX 01 02:37:72
  TRACK 185 AUDIO
    TITLE "2:cjc143_1633"
    INDEX 01 02:38:03
  TRACK 186 AUDIO
    TITLE "0:"
    INDEX 01 02:39:45
  TRACK 187 AUDIO
    TITLE "2:cjc143_1634"
    INDEX 01 02:39:55
  TRACK 188 AUDIO
    TITLE "0:"
    INDEX 01 02:41:22
  TRACK 189 AUDIO
    TITLE "2:cjc143_1635"
    INDEX 01 02:41:28
  TRACK 190 AUDIO
    TITLE "0:"
    INDEX 01 02:43:00
  TRACK 191 AUDIO
    TITLE "2:cjc143_1636"
    INDEX 01 02:43:06
  TRACK 192 AUDIO
    TITLE "0:"
    INDEX 01 02:44:29
  TRACK 193 AUDIO
    TITLE "2:cjc143_1637"
    INDEX 01 02:44:38
  TRACK 194 AUDIO
    TITLE "0:"
    INDEX 01 02:45:63
  TRACK 195 AUDIO
    TITLE "2:cjc143_1638"
    INDEX 01 02:45:71
  TRACK 196 AUDIO
    TITLE "0:"
    INDEX 01 02:47:21
  TRACK 197 AUDIO
    TITLE "2:cjc143_1639"
    INDEX 01 02:47:29
  TRACK 198 AUDIO
    TITLE "0:"
    INDEX 01 02:48:58
  TRACK 199 AUDIO
    TITLE "2:cjc143_1640"
    INDEX 01 02:48:66
  TRACK 200 AUDIO
    TITLE "0:"
    INDEX 01 02:50:29
  TRACK 201 AUDIO
    TITLE "2:cjc143_1641"
    INDEX 01 02:50:31
  TRACK 202 AUDIO
    TITLE "0:"
    INDEX 01 02:51:68
  TRACK 203 AUDIO
    TITLE "2:cjc143_1642"
    INDEX 01 02:51:74
  TRACK 204 AUDIO
    TITLE "0:"
    INDEX 01 02:54:02
  TRACK 205 AUDIO
    TITLE "2:cjc143_1643"
    INDEX 01 02:54:13
  TRACK 206 AUDIO
    TITLE "0:"
    INDEX 01 02:56:16
  TRACK 207 AUDIO
    TITLE "2:cjc143_1644"
    INDEX 01 02:56:30
  TRACK 208 AUDIO
    TITLE "0:"
    INDEX 01 02:58:11
  TRACK 209 AUDIO
    TITLE "2:cjc143_1645"
    INDEX 01 02:58:17
  TRACK 210 AUDIO
    TITLE "0:"
    INDEX 01 03:00:06
